<?xml version="1.0" encoding="utf-8"?>
<!-- Generator: Adobe Illustrator 18.0.0, SVG Export Plug-In . SVG Version: 6.00 Build 0)  -->
<!DOCTYPE svg PUBLIC "-//W3C//DTD SVG 1.0//EN" "http://www.w3.org/TR/2001/REC-SVG-20010904/DTD/svg10.dtd">
<svg version="1.0" id="Layer_1" xmlns="http://www.w3.org/2000/svg" xmlns:xlink="http://www.w3.org/1999/xlink" x="0px" y="0px"
	 viewBox="0 0 283.5 141.7" enable-background="new 0 0 283.5 141.7" xml:space="preserve">
<polygon fill="#FFFFFF" points="20,21.3 46.1,36.3 20,51.4 "/>
<polygon fill="#FFFFFF" points="79.7,37 88.1,22.5 96.4,37 "/>
<rect x="20.8" y="92.1" fill="#FFFFFF" width="9.6" height="30.1"/>
<g>
	<path fill="#FFFFFF" d="M159.3,54h-10.6V42.5h10.6V54z M149.7,53h8.6v-9.5h-8.6V53z"/>
</g>
<g>
	<path fill="#FFFFFF" d="M172.8,54h-10.6V32.4h10.6V54z M163.2,53h8.6V33.4h-8.6V53z"/>
</g>
<g>
	<path fill="#FFFFFF" d="M186.2,54h-10.6V22.9h10.6V54z M176.7,53h8.6V23.9h-8.6V53z"/>
</g>
<g>
	<path fill="#FFFFFF" d="M199.7,54h-10.6V14.1h10.6V54z M190.1,53h8.6V15.1h-8.6V53z"/>
</g>
<rect x="149.2" y="113.8" fill="#FFFFFF" width="9.6" height="10.5"/>
<rect x="162.7" y="103.8" fill="#FFFFFF" width="9.6" height="20.6"/>
<rect x="176.2" y="94.3" fill="#FFFFFF" width="9.6" height="30.1"/>
<rect x="189.6" y="85.4" fill="#FFFFFF" width="9.6" height="38.9"/>
<rect x="37.3" y="92.1" fill="#FFFFFF" width="9.6" height="30.1"/>
<g>
	<path fill="#FFFFFF" d="M105.8,55.5C94.6,55.5,85.4,46,85.4,35h5.7c0,8,6.6,14.8,14.7,14.8s14.8-6.6,14.8-14.7S114,20.5,106,20.5
		v-5.7c11,0,20.3,9.1,20.3,20.3S117,55.5,105.8,55.5z"/>
</g>
<g>
	<g>
		<g>
			<polyline fill="#FFFFFF" points="265,29 265,17 253,17 			"/>
			<polygon fill="#FFFFFF" points="267,29 263,29 263,19 253,19 253,15 267,15 			"/>
		</g>
		<g>
			<polyline fill="#FFFFFF" points="241,17 230,17 230,29 			"/>
			<polygon fill="#FFFFFF" points="232,29 228,29 228,15 241,15 241,19 232,19 			"/>
		</g>
		<g>
			<polyline fill="#FFFFFF" points="253,52 265,52 265,40 			"/>
			<polygon fill="#FFFFFF" points="267,54 253,54 253,50 263,50 263,40 267,40 			"/>
		</g>
		<g>
			<polyline fill="#FFFFFF" points="230,40 230,52 241,52 			"/>
			<polygon fill="#FFFFFF" points="241,54 228,54 228,40 232,40 232,50 241,50 			"/>
		</g>
	</g>
	<g>
		<line fill="#FFFFFF" x1="230.6" y1="51.4" x2="263.5" y2="18.5"/>
		
			<rect x="245.1" y="11.7" transform="matrix(0.7071 0.7071 -0.7071 0.7071 97.0604 -164.4271)" fill="#FFFFFF" width="3.8" height="46.5"/>
	</g>
	<g>
		<line fill="#FFFFFF" x1="230.6" y1="18.5" x2="263.5" y2="51.4"/>
		
			<rect x="223.8" y="33" transform="matrix(0.7071 0.7071 -0.7071 0.7071 97.0604 -164.4271)" fill="#FFFFFF" width="46.5" height="3.8"/>
	</g>
</g>
<g>
	<polyline fill="#FFFFFF" points="242.9,91.7 242.9,103.1 231.5,103.1 	"/>
	<polygon fill="#FFFFFF" points="244.8,105 231.5,105 231.5,101.2 241,101.2 241,91.7 244.8,91.7 	"/>
</g>
<g>
	<line fill="#FFFFFF" x1="242.9" y1="103.1" x2="227.3" y2="87.5"/>
	
		<rect x="224.1" y="93.4" transform="matrix(0.7071 0.7071 -0.7071 0.7071 136.2391 -138.3438)" fill="#FFFFFF" width="22.1" height="3.8"/>
</g>
<g>
	<polyline fill="#FFFFFF" points="263.1,102.9 251.7,102.9 251.7,91.5 	"/>
	<polygon fill="#FFFFFF" points="263.1,104.8 249.8,104.8 249.8,91.5 253.6,91.5 253.6,101 263.1,101 	"/>
</g>
<g>
	<line fill="#FFFFFF" x1="251.7" y1="102.9" x2="267.3" y2="87.3"/>
	
		<rect x="257.6" y="84.1" transform="matrix(0.7071 0.7071 -0.7071 0.7071 143.2527 -155.6121)" fill="#FFFFFF" width="3.8" height="22.1"/>
</g>
<g>
	<polyline fill="#FFFFFF" points="251.8,123.1 251.8,111.7 263.2,111.7 	"/>
	<polygon fill="#FFFFFF" points="253.7,123.1 249.9,123.1 249.9,109.8 263.2,109.8 263.2,113.6 253.7,113.6 	"/>
</g>
<g>
	<line fill="#FFFFFF" x1="251.8" y1="111.7" x2="267.4" y2="127.3"/>
	
		<rect x="248.6" y="117.6" transform="matrix(0.7071 0.7071 -0.7071 0.7071 160.5211 -148.5985)" fill="#FFFFFF" width="22.1" height="3.8"/>
</g>
<g>
	<polyline fill="#FFFFFF" points="231.7,111.8 243.1,111.8 243.1,123.2 	"/>
	<polygon fill="#FFFFFF" points="245,123.2 241.2,123.2 241.2,113.7 231.7,113.7 231.7,109.9 245,109.9 	"/>
</g>
<g>
	<line fill="#FFFFFF" x1="243.1" y1="111.8" x2="227.5" y2="127.4"/>
	
		<rect x="233.4" y="108.6" transform="matrix(0.7071 0.7071 -0.7071 0.7071 153.5074 -131.3301)" fill="#FFFFFF" width="3.8" height="22.1"/>
</g>
<g>
</g>
<g>
</g>
<g>
</g>
<g>
</g>
<g>
</g>
<g>
</g>
</svg>
